<svg xmlns="http://www.w3.org/2000/svg" xmlns:xlink="http://www.w3.org/1999/xlink" viewBox="0 0 91 82" fill="#fff" fill-rule="evenodd" stroke="#000" stroke-linecap="round" stroke-linejoin="round"><use xlink:href="#A" x=".5" y=".5"/><symbol id="A" overflow="visible"><g stroke="none"><path d="M83.305 38.235c0-.662-.056-1.296-.114-1.958l6.808-3.697c-.365-2.207-.956-4.359-1.744-6.4l-7.763.138c-.59-1.186-1.238-2.345-1.969-3.422l3.994-6.538c-1.435-1.711-3.038-3.282-4.754-4.663l-3.938 2.29-1.66 2.428-3.571 5.159c5.063 3.863 8.325 9.876 8.325 16.663 0 11.642-9.59 21.077-21.459 21.077C43.619 59.312 34 49.877 34 38.235 34 27.807 41.706 19.2 51.831 17.49l1.631-6.483-3.769-6.675A34.09 34.09 0 0 0 43.2 6.04l.114 7.641c-1.181.553-2.364 1.186-3.46 1.931l-6.665-3.918c-1.744 1.379-3.319 2.952-4.754 4.663l3.994 6.538c-.76 1.075-1.379 2.235-1.969 3.422l-7.79-.138a34.6 34.6 0 0 0-1.715 6.4l6.779 3.697c-.056.662-.085 1.296-.085 1.958s.029 1.296.085 1.958l-6.779 3.697a32.54 32.54 0 0 0 1.744 6.4l7.763-.138c.59 1.186 1.21 2.345 1.969 3.422l-3.994 6.538a34.35 34.35 0 0 0 4.754 4.689l6.665-3.944c1.096.745 2.279 1.379 3.459 1.958l-.115 7.613c2.081.773 4.246 1.352 6.496 1.711l3.796-6.675c.646.055 1.294.111 1.969.111s1.35-.055 1.996-.111l3.769 6.676c2.25-.358 4.444-.937 6.525-1.711l-.14-7.615c1.209-.579 2.363-1.215 3.488-1.958l6.665 3.944c1.715-1.407 3.319-2.98 4.754-4.689l-3.994-6.538c.731-1.075 1.379-2.235 1.969-3.422l7.763.138a32.56 32.56 0 0 0 1.744-6.4l-6.806-3.697c.054-.66.11-1.294.11-1.956z" fill="#a0a1a2"/><path d="M28.799 67.145v-3.282l-.183-.166-3.424-1.132-.882-2.262 1.695-3.448.187-.387-1.06-1.049-1.289-1.269-.448.221-3.346 1.683-2.306-.634-1.46-3.669h-3.319l-.169.166-1.154 3.351-2.333.862-3.881-1.831-2.363 2.299.225.432 1.715 3.279-.956 2.26L0 64v3.282l.479.138 3.571 1.158.956 2.262-1.829 3.807 2.363 2.345.45-.221 3.346-1.683 2.306.938L13.106 80h3.346l.14-.47 1.181-3.503 2.279-.937 3.91 1.794 2.363-2.318-.225-.441-1.715-3.282.661-2.29 3.755-1.407zm-14.09 3.035c-2.588 0-4.696-2.069-4.696-4.606s2.11-4.606 4.696-4.606 4.669 2.069 4.669 4.606-2.082 4.606-4.669 4.606z" fill="#7a7a7a"/><path d="M59.933 0l-1.294 4.001-2.221 6.953-1.069 3.335-.929 2.924-6.469 20.166c-.141.387.056.69.506.69h5.963c.196 0 .338.055.421.166.14.138.169.332.085.553l-6.159 14.648c-.169.387-.056.47.225.138l19.492-21.684c.281-.332.169-.579-.254-.579l-6.384.028-1.181.028c-.421 0-.619-.304-.394-.662l6.075-10.621 1.434-2.539 1.66-2.924 3.544-6.151 2.025-3.586C70.479 2.316 65.389.606 59.933 0z" fill="#fcd116"/><path d="M71.108 2.964L56.989 31.336h3.515c-.313-.065-.448-.323-.252-.634l6.075-10.621 1.434-2.539 1.66-2.924 3.544-6.151 2.025-3.586a40.26 40.26 0 0 0-3.882-1.917zM68.254 31.31l-3.94.018-14.567 21.434L68.508 31.89c.281-.33.169-.579-.254-.579z" opacity=".3" fill="#ff8c00"/></g></symbol></svg>